<?xml version="1.0" encoding="UTF-8" standalone="no"?>
<!-- Created with Inkscape (http://www.inkscape.org/) -->

<svg
   width="8.3444281mm"
   height="7.7738566mm"
   viewBox="0 0 8.344428 7.7738567"
   version="1.1"
   id="svg1"
   inkscape:version="1.3.2 (1:1.3.2+202311252150+091e20ef0f)"
   sodipodi:docname="qim_platform-icon.svg"
   inkscape:export-filename="qim_platform-icon.png"
   inkscape:export-xdpi="779.25055"
   inkscape:export-ydpi="779.25055"
   xmlns:inkscape="http://www.inkscape.org/namespaces/inkscape"
   xmlns:sodipodi="http://sodipodi.sourceforge.net/DTD/sodipodi-0.dtd"
   xmlns="http://www.w3.org/2000/svg"
   xmlns:svg="http://www.w3.org/2000/svg">
  <sodipodi:namedview
     id="namedview1"
     pagecolor="#ffffff"
     bordercolor="#000000"
     borderopacity="0.25"
     inkscape:showpageshadow="2"
     inkscape:pageopacity="0.0"
     inkscape:pagecheckerboard="0"
     inkscape:deskcolor="#d1d1d1"
     inkscape:document-units="mm"
     inkscape:zoom="3.1345226"
     inkscape:cx="90.603908"
     inkscape:cy="61.253347"
     inkscape:window-width="1266"
     inkscape:window-height="631"
     inkscape:window-x="3830"
     inkscape:window-y="56"
     inkscape:window-maximized="0"
     inkscape:current-layer="layer1" />
  <defs
     id="defs1" />
  <g
     inkscape:label="Layer 1"
     inkscape:groupmode="layer"
     id="layer1"
     transform="translate(-49.212495,-93.140004)">
    <g
       id="g95"
       transform="matrix(1.0725239,0,0,1.0727401,-76.182898,-88.386314)"
       style="stroke-width:0.932287">
      <path
         id="path94"
         style="fill:#ff9900;fill-opacity:1;stroke:none;stroke-width:0.443769;stroke-linecap:round;stroke-linejoin:miter;stroke-dasharray:none;stroke-opacity:1;paint-order:normal"
         d="m 117.13806,171.16039 v -1.08393 c 0,-0.35299 0.2857,-0.63715 0.64059,-0.63715 v 0 h 6.05523 c 0.35489,0 0.64059,0.28416 0.64059,0.63715 v 1.08393"
         sodipodi:nodetypes="csscssc" />
      <path
         id="rect75"
         style="fill:none;fill-opacity:1;stroke:#000000;stroke-width:0.443769;stroke-linecap:round;stroke-linejoin:miter;stroke-dasharray:none;stroke-opacity:1;paint-order:normal"
         d="m 117.13806,172.211 v -2.13454 c 0,-0.35299 0.2857,-0.63715 0.64059,-0.63715 v 0 h 6.05523 c 0.35489,0 0.64059,0.28416 0.64059,0.63715 v 3.9123"
         sodipodi:nodetypes="csscssc" />
      <path
         id="path76"
         style="fill:none;fill-opacity:1;stroke:#000000;stroke-width:0.443769;stroke-linecap:round;stroke-linejoin:miter;stroke-dasharray:none;stroke-opacity:1;paint-order:normal"
         d="m 124.47447,174.94459 v 0.66053 c 0,0.35299 -0.2857,0.63715 -0.64059,0.63715 h -6.05523 c -0.35489,0 -0.64059,-0.28416 -0.64059,-0.63715 v -2.43526"
         sodipodi:nodetypes="cssssc" />
      <path
         style="fill:#cd4d00;fill-opacity:1;stroke:#000000;stroke-width:0.443769;stroke-linecap:round;stroke-linejoin:miter;stroke-dasharray:none;stroke-opacity:1;paint-order:normal"
         d="m 118.00096,170.34725 h 0.28389"
         id="path72"
         sodipodi:nodetypes="cc" />
      <path
         style="fill:#cd4d00;fill-opacity:1;stroke:#000000;stroke-width:0.443769;stroke-linecap:round;stroke-linejoin:miter;stroke-dasharray:none;stroke-opacity:1;paint-order:normal"
         d="m 120.63414,170.34725 h 2.93385"
         id="path74"
         sodipodi:nodetypes="cc" />
      <path
         style="fill:#cd4d00;fill-opacity:1;stroke:#000000;stroke-width:0.443769;stroke-linecap:round;stroke-linejoin:miter;stroke-dasharray:none;stroke-opacity:1;paint-order:normal"
         d="m 119.04851,170.34725 h 0.28389"
         id="path75"
         sodipodi:nodetypes="cc" />
      <g
         id="g93"
         transform="matrix(0.36505828,0,0,0.35972642,83.784309,128.37775)"
         style="stroke-width:2.57263">
        <path
           id="path91"
           d="m 100.83326,125.49607 -5.27832,2.18097 c -0.37814,0.14893 -0.41489,0.7496 -0.0409,0.91436 l 5.17239,2.13082 c 0.4877,0.18116 1.00239,0.18129 1.45479,0 l 5.17239,-2.13082 c 0.37397,-0.16476 0.33723,-0.76543 -0.0409,-0.91436 l -5.27831,-2.18097 c -0.44426,-0.18069 -0.70409,-0.18273 -1.1611,0 z"
           fill="#ffab61"
           paint-order="normal"
           style="fill:#990000;fill-opacity:1;stroke:#000000;stroke-width:1.2246;stroke-dasharray:none;stroke-opacity:1" />
        <path
           id="path92"
           d="m 100.83326,123.02262 -5.27832,2.18097 c -0.37814,0.14893 -0.41489,0.7496 -0.0409,0.91436 l 5.17239,2.13082 c 0.4877,0.18116 1.00239,0.18129 1.45479,0 l 5.17239,-2.13082 c 0.37397,-0.16476 0.33723,-0.76543 -0.0409,-0.91436 l -5.27831,-2.18097 c -0.44426,-0.18069 -0.70409,-0.18272 -1.1611,0 z"
           fill="#ffc861"
           paint-order="normal"
           style="fill:#cd4d00;fill-opacity:1;stroke:#000000;stroke-width:1.2246;stroke-dasharray:none;stroke-opacity:1" />
        <path
           id="path93"
           d="m 100.83325,120.5494 -5.27832,2.18098 c -0.37814,0.14893 -0.41489,0.7496 -0.0409,0.91436 l 5.17239,2.13082 c 0.4877,0.18115 1.00239,0.18128 1.45479,0 l 5.17239,-2.13082 c 0.37397,-0.16477 0.33723,-0.76544 -0.0409,-0.91436 l -5.27831,-2.18098 c -0.44426,-0.18069 -0.70409,-0.18271 -1.1611,0 z"
           fill="#55a1ff"
           paint-order="normal"
           style="fill:#ff9900;fill-opacity:1;stroke:#000000;stroke-width:1.2246;stroke-dasharray:none;stroke-opacity:1" />
      </g>
    </g>
  </g>
</svg>
