<?xml version="1.0" encoding="UTF-8" standalone="no"?>
<!-- Created with Inkscape (http://www.inkscape.org/) -->

<svg
   width="60.670403mm"
   height="22.869995mm"
   viewBox="0 0 60.670401 22.869995"
   version="1.1"
   id="svg1"
   inkscape:version="1.3.2 (1:1.3.2+202311252150+091e20ef0f)"
   sodipodi:docname="qim3d-logo.svg"
   inkscape:export-filename="qim3d-logo.png"
   inkscape:export-xdpi="214.35162"
   inkscape:export-ydpi="214.35162"
   xmlns:inkscape="http://www.inkscape.org/namespaces/inkscape"
   xmlns:sodipodi="http://sodipodi.sourceforge.net/DTD/sodipodi-0.dtd"
   xmlns="http://www.w3.org/2000/svg"
   xmlns:svg="http://www.w3.org/2000/svg">
  <sodipodi:namedview
     id="namedview1"
     pagecolor="#ffffff"
     bordercolor="#000000"
     borderopacity="0.25"
     inkscape:showpageshadow="2"
     inkscape:pageopacity="0.0"
     inkscape:pagecheckerboard="0"
     inkscape:deskcolor="#ffffff"
     inkscape:document-units="mm"
     inkscape:zoom="1.5672613"
     inkscape:cx="132.71558"
     inkscape:cy="97.622521"
     inkscape:window-width="2216"
     inkscape:window-height="1323"
     inkscape:window-x="1868"
     inkscape:window-y="56"
     inkscape:window-maximized="0"
     inkscape:current-layer="layer1"
     showborder="true" />
  <defs
     id="defs1" />
  <g
     inkscape:label="Layer 1"
     inkscape:groupmode="layer"
     id="layer1"
     transform="translate(-66.401506,-111.673)">
    <g
       id="g1"
       transform="matrix(0.94536024,0,0,0.94536024,4.0144902,6.1975108)">
      <path
         id="path142"
         style="fill:#990000;fill-opacity:1;stroke-width:0.0394022"
         d="m 66.4391,126.9782 c -0.100778,0.17983 -0.156643,0.38496 -0.156643,0.59815 l 0.300981,2.10104 1.181178,0.70906 7.505109,5.19594 0.290575,0.17453 v -3.303 c -0.271807,-0.16321 -5.91403,-3.55054 -6.185217,-3.71339 z"
         sodipodi:nodetypes="csccccccc" />
      <path
         d="m 84.243812,126.52729 -2.498806,-1.50021 -3.092444,-1.85681 -2.46264,-1.4785 c -0.387719,-0.23272 -0.872072,-0.23272 -1.259791,0 l -2.46264,1.4785 c -0.01095,0.005 -5.580936,3.35071 -5.591251,3.35702 -0.18547,0.11137 -0.334756,0.26781 -0.437268,0.45051 l 2.93591,1.76264 c 0.271205,0.16285 5.91341,3.55034 6.185071,3.71348 0.271953,-0.16321 5.914013,-3.55065 6.185053,-3.71348 l 2.936075,-1.76264 c -0.102421,-0.1827 -0.251652,-0.33908 -0.437269,-0.45051 z m 0,0"
         fill="#ffd500"
         id="path143"
         style="fill:#990000;fill-opacity:1;stroke-width:0.0394022" />
      <path
         id="path144"
         style="fill:#990000;fill-opacity:1;stroke-width:0.0394022"
         d="m 84.680606,126.9782 -2.936002,1.76236 c -0.27135,0.16286 -5.91246,3.55026 -6.184286,3.7134 v 3.30961 l 6.486199,-3.89454 2.501526,-2.1916 0.289188,0.15555 v -2.25672 c -1.64e-4,-0.21319 -0.05568,-0.41838 -0.156643,-0.59815 z"
         sodipodi:nodetypes="ccccccccsc" />
      <path
         id="path145"
         style="fill:#000000;fill-opacity:0.105752;stroke-width:0.0394022"
         d="m 75.560483,121.51672 c -0.218023,0 -0.436173,0.0582 -0.629932,0.17472 l -2.462385,1.47847 c -0.01095,0.005 -5.581081,3.3511 -5.591396,3.35742 -0.185617,0.11137 -0.334665,0.26741 -0.437177,0.4501 l 2.935728,1.76268 c 0.271204,0.16285 5.913501,3.55032 6.185162,3.71347 0.08234,-0.0495 0.657682,-0.39453 1.426786,-0.85628 -1.756924,-1.05479 -4.717298,-2.83234 -4.911843,-2.94917 l -5.29e-4,5.1e-4 -2.496488,-1.49861 c -0.266732,-0.16011 -0.273578,-0.55013 -0.0073,-0.71159 0.0016,-7.9e-4 0.0037,-0.002 0.0055,-0.004 0.01095,-0.005 5.581082,-3.35058 5.591397,-3.3569 l 1.666041,-0.99994 -0.64388,-0.38655 c -0.193796,-0.1163 -0.41191,-0.17472 -0.629932,-0.17472 z m -9.12142,5.46168 c -0.100777,0.17983 -0.156643,0.38471 -0.156643,0.59789 l 0.300762,2.10118 1.181324,0.709 v -2.61277 z m 10.59885,4.58886 c -0.794663,0.477 -1.39323,0.83629 -1.47743,0.88677 v 3.30937 l 1.47743,-0.88677 z" />
      <path
         id="path256"
         style="fill:#1a1a1a;fill-opacity:1;stroke-width:0.0394022"
         d="m 75.565978,121.23263 c -0.270401,1e-5 -0.541003,0.0723 -0.782103,0.21698 -0.244275,0.14678 -8.791026,5.27834 -8.791026,5.27834 v 2.30458 c 0,0.72121 -1.8e-5,0.99355 0.590589,1.33453 l 2.50202,1.50197 0.590588,0.35473 2.50202,1.50197 0.590607,0.35473 2.50107,1.50196 0.296235,0.17728 0.295304,-0.17728 2.50107,-1.50196 0.591538,-0.35473 2.501088,-1.50197 0.591539,-0.35473 2.50107,-1.50197 c 0.59152,-0.34151 0.591538,-0.6621 0.591538,-1.38426 v -2.25495 c -0.576257,-0.34599 -3.83608,-2.30279 -4.237948,-2.54412 -0.139847,-0.084 -0.321648,-0.0389 -0.405684,0.10096 -0.08398,0.13984 -0.03797,0.32163 0.101873,0.40568 l 0.579269,0.34812 -2.518049,1.51236 c -1.55022,-0.93072 -0.939841,-0.56425 -2.518998,-1.51236 1.728151,-1.03753 1.190233,-0.71506 2.518049,-1.51234 l 0.641544,0.38493 c 0.139847,0.0838 0.321483,0.0389 0.405684,-0.10096 0.08398,-0.13985 0.03797,-0.32165 -0.101873,-0.40569 -1.718767,-1.03214 0.676231,0.40543 -3.254893,-1.95482 -0.241172,-0.14478 -0.511701,-0.217 -0.782121,-0.21698 z m 0,0.59153 c 0.165224,0 0.330028,0.0436 0.477397,0.132 l 2.04067,1.22554 c -1.179607,0.70815 -0.237977,0.1435 -2.518067,1.51236 l -2.518998,-1.51236 2.04067,-1.22554 c 0.147332,-0.0885 0.313122,-0.132 0.478328,-0.132 z m -3.092608,1.70197 2.518049,1.51234 c -0.344615,0.20687 -2.175132,1.3064 -2.518049,1.51236 -0.361686,-0.21719 -2.300903,-1.38137 -2.518999,-1.51236 z m -3.092609,1.8567 2.518049,1.51236 c -2.100151,1.26101 -1.738794,1.04443 -2.518049,1.51233 l -2.49919,-1.50101 c 0.04674,-0.0433 0.09731,-0.0814 0.151897,-0.11411 0.01095,-0.007 1.806746,-1.08505 2.347293,-1.40951 z m 6.185217,0 c 1.074321,0.64507 1.235656,0.74247 2.518067,1.51236 -0.34739,0.20854 -2.171298,1.30424 -2.518067,1.51233 l -2.518998,-1.51233 c 0.344615,-0.20687 2.176081,-1.3064 2.518998,-1.51236 z m 6.184286,0 2.347293,1.40952 c 0.05477,0.0329 0.106255,0.0708 0.152809,0.1141 l -2.500139,1.50102 c -0.771258,-0.46314 -0.397578,-0.23916 -2.518049,-1.51234 z m -9.276894,1.85672 2.518049,1.51233 -2.518049,1.51234 c -0.243327,-0.14624 -2.263495,-1.35889 -2.518999,-1.51234 z m 6.185235,0 2.518049,1.51233 -2.518049,1.51234 c -0.323985,-0.19438 -2.169473,-1.3024 -2.518999,-1.51234 0.353689,-0.2124 2.193005,-1.31671 2.518999,-1.51233 z m -12.061018,0.18585 2.487871,1.49348 v 2.26048 l -2.50202,-1.50197 v -2.08972 c 0,-0.0544 0.0055,-0.10881 0.01461,-0.16231 z m 17.935851,0 c 0.0091,0.0533 0.01461,0.1079 0.01461,0.1623 v 2.08973 l -2.50107,1.50197 v -2.26048 z m -8.96746,1.67084 c 0.324003,0.19455 2.168377,1.30242 2.518067,1.51234 l -2.518067,1.51236 -2.518998,-1.51236 z m -5.889932,0.17728 c 1.933631,1.16095 1.668579,1.00144 2.50202,1.50196 v 2.26051 l -2.50202,-1.50197 z m 11.778932,0 v 2.2605 l -2.501088,1.50197 v -2.26051 z m -8.686305,1.85669 c 0.256106,0.15373 2.25988,1.35714 2.50107,1.50197 v 2.2605 l -2.50107,-1.50197 z m 5.593679,0 v 2.2605 l -2.50107,1.50197 v -2.2605 c 0.258881,-0.15536 2.1032,-1.26309 2.50107,-1.50197 z"
         sodipodi:nodetypes="sscccccccccccccccccssccccccscssssccccscccccccccsccccccccccccccccccccccccccscccccccccccccccccccccccccccccccccc" />
      <path
         id="path257"
         style="fill:#cd4d00;fill-opacity:1;stroke-width:0.0394022"
         d="m 66.4391,122.14776 c -0.100778,0.17983 -0.156643,0.38496 -0.156643,0.59815 l 0.300981,2.10104 1.181178,0.70906 7.505109,5.19594 0.290575,0.17453 v -3.303 c -0.271807,-0.16321 -5.91403,-3.55054 -6.185217,-3.71339 z"
         sodipodi:nodetypes="csccccccc" />
      <path
         d="m 84.243812,121.69685 -2.498806,-1.50021 -3.092444,-1.85681 -2.46264,-1.4785 c -0.387719,-0.23272 -0.872072,-0.23272 -1.259791,0 l -2.46264,1.4785 c -0.01095,0.005 -5.580936,3.35071 -5.591251,3.35702 -0.18547,0.11137 -0.334756,0.26781 -0.437268,0.45051 l 2.93591,1.76264 c 0.271205,0.16285 5.91341,3.55034 6.185071,3.71348 0.271953,-0.16321 5.914013,-3.55065 6.185053,-3.71348 l 2.936075,-1.76264 c -0.102421,-0.1827 -0.251652,-0.33908 -0.437269,-0.45051 z m 0,0"
         fill="#ffd500"
         id="path258"
         style="fill:#cd4d00;fill-opacity:1;stroke-width:0.0394022" />
      <path
         id="path259"
         style="fill:#cd4d00;fill-opacity:1;stroke-width:0.0394022"
         d="m 84.680606,122.14776 -2.936002,1.76236 c -0.27135,0.16286 -5.91246,3.55026 -6.184286,3.7134 v 3.30961 l 6.486199,-3.89454 2.790714,-1.67557 v -0.36039 -2.25672 c -1.64e-4,-0.21319 -0.05568,-0.41837 -0.156643,-0.59815 z" />
      <path
         id="path260"
         style="fill:#000000;fill-opacity:0.0909692;stroke-width:0.0394022"
         d="m 75.560483,116.68654 c -0.218023,0 -0.436173,0.0582 -0.629932,0.17471 l -2.462385,1.47846 c -0.01095,0.005 -5.581081,3.35059 -5.591396,3.35691 -0.185617,0.11136 -0.334665,0.26792 -0.437177,0.45061 l 1.324986,0.79581 1.610742,0.96687 c 0.271204,0.16285 5.913501,3.55034 6.185162,3.71348 0.08234,-0.0495 0.657682,-0.39506 1.426786,-0.85681 -1.756924,-1.05478 -4.717298,-2.83183 -4.911843,-2.94865 h -5.29e-4 l -2.496488,-1.49861 c -0.266732,-0.16011 -0.273578,-0.5496 -0.0073,-0.71107 0.0016,-7.8e-4 0.0037,-0.002 0.0055,-0.004 0.01095,-0.005 5.581082,-3.35057 5.591397,-3.35689 l 1.666041,-1.00045 -0.64388,-0.38603 c -0.193796,-0.11629 -0.41191,-0.17471 -0.629932,-0.17471 z m 0,10.9368 v 3.30986 l 1.47743,-0.88677 v -3.30986 c -0.794663,0.47699 -1.39323,0.83629 -1.47743,0.88677 z m -7.795904,-4.68035 -1.325516,-0.7953 c -0.100777,0.17983 -0.156643,0.38523 -0.156643,0.59842 l 0.300762,2.10064 1.181324,0.70901 z" />
      <path
         id="path263"
         style="fill:#1a1a1a;fill-opacity:1;stroke-width:0.0394022"
         d="m 75.565978,116.40219 c -0.270401,10e-6 -0.541003,0.0723 -0.782103,0.21698 -0.244275,0.14678 -8.791026,5.27834 -8.791026,5.27834 v 3.28422 l 0.590589,0.35489 2.50202,1.50197 0.590588,0.35473 2.50202,1.50197 0.590607,0.35473 2.50107,1.50196 0.296235,0.17728 0.295304,-0.17728 2.50107,-1.50196 0.591538,-0.35473 2.501088,-1.50197 0.591539,-0.35473 2.50107,-1.50197 0.591538,-0.35473 c 0,-1.21232 0,-2.39992 0,-3.28448 -0.576257,-0.34599 -3.83608,-2.30279 -4.237948,-2.54412 -0.139847,-0.084 -0.321648,-0.0389 -0.405684,0.10096 -0.08398,0.13984 -0.03797,0.32163 0.101873,0.40568 l 0.579269,0.34812 -2.518049,1.51236 c -1.55022,-0.93072 -0.939841,-0.56425 -2.518998,-1.51236 1.728151,-1.03753 1.190233,-0.71506 2.518049,-1.51234 l 0.641544,0.38493 c 0.139847,0.0838 0.321483,0.0389 0.405684,-0.10096 0.08398,-0.13985 0.03797,-0.32165 -0.101873,-0.40569 -1.718767,-1.03214 0.676231,0.40543 -3.254893,-1.95482 -0.241172,-0.14478 -0.511701,-0.217 -0.782121,-0.21698 z m 0,0.59153 c 0.165224,0 0.330028,0.0436 0.477397,0.132 l 2.04067,1.22554 c -1.179607,0.70815 -0.237977,0.1435 -2.518067,1.51236 l -2.518998,-1.51236 2.04067,-1.22554 c 0.147332,-0.0885 0.313122,-0.132 0.478328,-0.132 z m -3.092608,1.70197 2.518049,1.51234 c -0.344615,0.20687 -2.175132,1.3064 -2.518049,1.51236 -0.361686,-0.21719 -2.300903,-1.38137 -2.518999,-1.51236 z m -3.092609,1.8567 2.518049,1.51236 c -2.100151,1.26101 -1.738794,1.04443 -2.518049,1.51233 l -2.49919,-1.50101 c 0.04674,-0.0433 0.09731,-0.0814 0.151897,-0.11411 0.01095,-0.007 1.806746,-1.08505 2.347293,-1.40951 z m 6.185217,0 c 1.074321,0.64507 1.235656,0.74247 2.518067,1.51236 -0.34739,0.20854 -2.171298,1.30424 -2.518067,1.51233 l -2.518998,-1.51233 c 0.344615,-0.20687 2.176081,-1.3064 2.518998,-1.51236 z m 6.184286,0 2.347293,1.40952 c 0.05477,0.0329 0.106255,0.0708 0.152809,0.1141 l -2.500139,1.50102 c -0.771258,-0.46314 -0.397578,-0.23916 -2.518049,-1.51234 z m -9.276894,1.85672 2.518049,1.51233 -2.518049,1.51234 c -0.243327,-0.14624 -2.263495,-1.35889 -2.518999,-1.51234 z m 6.185235,0 2.518049,1.51233 -2.518049,1.51234 c -0.323985,-0.19438 -2.169473,-1.3024 -2.518999,-1.51234 0.353689,-0.2124 2.193005,-1.31671 2.518999,-1.51233 z m -12.061018,0.18585 2.487871,1.49348 v 2.26048 l -2.50202,-1.50197 v -2.08972 c 0,-0.0544 0.0055,-0.10881 0.01461,-0.16231 z m 17.935851,0 c 0.0091,0.0533 0.01461,0.1079 0.01461,0.1623 v 2.08973 l -2.50107,1.50197 v -2.26048 z m -8.96746,1.67084 c 0.324003,0.19455 2.168377,1.30242 2.518067,1.51234 l -2.518067,1.51236 -2.518998,-1.51236 z m -5.889932,0.17728 c 1.933631,1.16095 1.668579,1.00144 2.50202,1.50196 v 2.26051 l -2.50202,-1.50197 z m 11.778932,0 v 2.2605 l -2.501088,1.50197 v -2.26051 z m -8.686305,1.85669 c 0.256106,0.15373 2.25988,1.35714 2.50107,1.50197 v 2.2605 l -2.50107,-1.50197 z m 5.593679,0 v 2.2605 l -2.50107,1.50197 v -2.2605 c 0.258881,-0.15536 2.1032,-1.26309 2.50107,-1.50197 z"
         sodipodi:nodetypes="sscccccccccccccccccssccccccscssssccccscccccccccsccccccccccccccccccccccccccscccccccccccccccccccccccccccccccccc" />
      <path
         id="path264"
         style="fill:#ff9900;fill-opacity:1;stroke-width:0.0394022"
         d="m 66.4391,117.31731 c -0.100778,0.17983 -0.156643,0.38496 -0.156643,0.59815 l 0.300981,2.10104 1.181178,0.70906 7.505109,5.19594 0.290575,0.17453 v -3.303 c -0.271807,-0.16321 -5.91403,-3.55054 -6.185217,-3.71339 z"
         sodipodi:nodetypes="csccccccc" />
      <path
         d="m 84.243812,116.86641 -2.498806,-1.50022 -3.092444,-1.85681 -2.46264,-1.4785 c -0.387719,-0.23272 -0.872072,-0.23272 -1.259791,0 l -2.46264,1.4785 c -0.01095,0.005 -5.580936,3.35071 -5.591251,3.35703 -0.18547,0.11136 -0.334756,0.2678 -0.437268,0.4505 l 2.93591,1.76264 c 0.271205,0.16285 5.91341,3.55034 6.185071,3.71348 0.271953,-0.16321 5.914013,-3.55065 6.185053,-3.71348 l 2.936075,-1.76264 c -0.102421,-0.1827 -0.251652,-0.33908 -0.437269,-0.4505 z m 0,0"
         fill="#ffd500"
         id="path265"
         style="fill:#ff9900;fill-opacity:1;stroke-width:0.0394022" />
      <path
         id="path266"
         style="fill:#ff9900;fill-opacity:1;stroke-width:0.0394022"
         d="m 84.680606,117.31731 -2.936002,1.76237 c -0.27135,0.16285 -5.91246,3.55025 -6.184286,3.71339 v 3.30961 l 6.486199,-3.89454 2.790714,-1.67557 v -0.36039 -2.25672 c -1.64e-4,-0.21319 -0.05568,-0.41837 -0.156643,-0.59815 z" />
      <path
         id="path267"
         style="fill:#ffffff;fill-opacity:0.194108;stroke-width:0.0394022"
         d="m 66.4391,117.31732 c -0.100778,0.17983 -0.156643,0.38496 -0.156643,0.59815 l 0.300981,2.10104 1.181178,0.70906 v -2.61297 z"
         sodipodi:nodetypes="cscccc" />
      <path
         d="m 72.075025,118.98767 -2.49636,-1.49883 c -0.266732,-0.16011 -0.273651,-0.54962 -0.0073,-0.71108 0.0016,-7.9e-4 0.0037,-0.002 0.0055,-0.004 0.01095,-0.005 5.580954,-3.35056 5.591269,-3.35688 l 1.665968,-1.00029 -0.643661,-0.38633 c -0.387573,-0.23272 -0.87209,-0.23272 -1.259645,0 l -2.46264,1.47851 c -0.01095,0.005 -5.580936,3.35072 -5.591251,3.35704 -0.185616,0.11137 -0.334756,0.26781 -0.437268,0.4505 l 2.93591,1.76262 c 0.271205,0.16285 5.91341,3.55036 6.185071,3.71351 0.08234,-0.0495 0.657518,-0.39479 1.426622,-0.85654 -1.756924,-1.05478 -4.717006,-2.83203 -4.91155,-2.94885 z m 0,0"
         fill="#fbc700"
         id="path268"
         style="fill:#ffffff;fill-opacity:0.194108;stroke-width:0.0394022" />
      <path
         id="path269"
         style="fill:#ffffff;fill-opacity:0.194108;stroke-width:0.0394022"
         d="m 77.037767,121.90624 c -0.794663,0.47699 -1.393248,0.83636 -1.477449,0.88684 v 3.30961 l 1.477449,-0.88684 z" />
      <path
         id="path270"
         style="stroke-width:0.0394022"
         d="m 75.565978,111.57174 c -0.270401,10e-6 -0.541003,0.0723 -0.782103,0.21698 -0.244275,0.14678 -8.0542,4.83609 -8.0542,4.83609 -0.457899,0.2749 -0.736826,0.7702 -0.736826,1.30197 v 2.4245 l 0.590589,0.35489 2.50202,1.50197 0.590588,0.35473 2.50202,1.50197 0.590607,0.35473 2.50107,1.50196 0.296235,0.17728 0.295304,-0.17728 2.50107,-1.50196 0.591538,-0.35473 2.501088,-1.50197 0.591539,-0.35473 2.50107,-1.50197 0.591538,-0.35473 v -2.42466 c -1.46e-4,-0.53239 -0.280808,-1.02753 -0.737775,-1.30197 -0.576257,-0.34598 -3.098305,-1.86064 -3.500173,-2.10197 -0.139847,-0.084 -0.321648,-0.0389 -0.405684,0.10096 -0.08398,0.13984 -0.03797,0.32163 0.101873,0.40568 l 0.579269,0.34812 -2.518049,1.51236 c -1.55022,-0.93072 -0.939841,-0.56425 -2.518998,-1.51236 1.728151,-1.03753 1.190233,-0.71506 2.518049,-1.51234 l 0.641544,0.38493 c 0.139847,0.0838 0.321483,0.0389 0.405684,-0.10096 0.08398,-0.13985 0.03797,-0.32165 -0.101873,-0.40568 -1.718767,-1.03215 0.676231,0.40542 -3.254893,-1.95483 -0.241172,-0.14478 -0.511701,-0.217 -0.782121,-0.21698 z m 0,0.59153 c 0.165224,0 0.330028,0.0436 0.477397,0.132 l 2.04067,1.22554 c -1.179607,0.70815 -0.237977,0.1435 -2.518067,1.51236 l -2.518998,-1.51236 2.04067,-1.22554 c 0.147332,-0.0885 0.313122,-0.132 0.478328,-0.132 z m -3.092608,1.70198 2.518049,1.51233 c -0.344615,0.20687 -2.175132,1.3064 -2.518049,1.51236 -0.361686,-0.21718 -2.300903,-1.38136 -2.518999,-1.51236 z m -3.092609,1.85669 2.518049,1.51236 c -2.100151,1.26101 -1.738794,1.04443 -2.518049,1.51234 l -2.49919,-1.50102 c 0.04674,-0.0433 0.09731,-0.0814 0.151897,-0.11411 0.01095,-0.007 1.806746,-1.08505 2.347293,-1.40951 z m 6.185217,0 c 1.074321,0.64507 1.235656,0.74247 2.518067,1.51236 -0.34739,0.20855 -2.171298,1.30424 -2.518067,1.51234 L 73.04698,117.2343 c 0.344615,-0.20687 2.176081,-1.3064 2.518998,-1.51236 z m 6.184286,0 2.347293,1.40952 c 0.05477,0.0329 0.106255,0.0708 0.152809,0.1141 l -2.500139,1.50102 c -0.771258,-0.46314 -0.397578,-0.23916 -2.518049,-1.51234 z m -9.276894,1.85672 2.518049,1.51233 -2.518049,1.51234 c -0.243327,-0.14623 -2.263495,-1.35889 -2.518999,-1.51234 z m 6.185235,0 2.518049,1.51233 -2.518049,1.51234 c -0.323985,-0.19438 -2.169473,-1.3024 -2.518999,-1.51234 0.353689,-0.21239 2.193005,-1.31671 2.518999,-1.51233 z m -12.061018,0.18585 2.487871,1.49348 v 2.26048 l -2.50202,-1.50197 v -2.08972 c 0,-0.0544 0.0055,-0.10881 0.01461,-0.1623 z m 17.935851,0 c 0.0091,0.0533 0.01461,0.1079 0.01461,0.1623 v 2.08973 l -2.50107,1.50197 v -2.26048 z m -8.96746,1.67084 c 0.324003,0.19455 2.168377,1.30243 2.518067,1.51234 l -2.518067,1.51236 -2.518998,-1.51236 z m -5.889932,0.17728 c 1.933631,1.16095 1.668579,1.00144 2.50202,1.50197 v 2.2605 l -2.50202,-1.50197 z m 11.778932,0 v 2.2605 l -2.501088,1.50197 v -2.2605 z m -8.686305,1.85669 c 0.256106,0.15373 2.25988,1.35714 2.50107,1.50197 v 2.2605 l -2.50107,-1.50196 z m 5.593679,0 v 2.26051 l -2.50107,1.50196 v -2.2605 c 0.258881,-0.15536 2.1032,-1.26309 2.50107,-1.50197 z"
         sodipodi:nodetypes="sscsccccccccccccccccsssccccccscssssccccscccccccccsccccccccccccccccccccccccccscccccccccccccccccccccccccccccccccc" />
      <path
         id="path271"
         style="fill:#1a1a1a;fill-opacity:1;stroke-width:0.0394022"
         d="m 75.565978,111.57174 c -0.270401,10e-6 -0.541003,0.0723 -0.782103,0.21698 -0.244275,0.14678 -8.0542,4.83609 -8.0542,4.83609 -0.457899,0.2749 -0.736826,0.7702 -0.736826,1.30197 v 2.4245 l 0.590589,0.35489 2.50202,1.50197 0.590588,0.35473 2.50202,1.50197 0.590607,0.35473 2.50107,1.50196 0.296235,0.17728 0.295304,-0.17728 2.50107,-1.50196 0.591538,-0.35473 2.501088,-1.50197 0.591539,-0.35473 2.50107,-1.50197 0.591538,-0.35473 v -2.42466 c -1.46e-4,-0.53239 -0.280808,-1.02753 -0.737775,-1.30197 -0.576257,-0.34598 -3.098305,-1.86064 -3.500173,-2.10197 -0.331434,-0.19904 -0.635719,0.30715 -0.303811,0.50664 l 0.579269,0.34812 -2.518049,1.51236 c -1.55022,-0.93072 -0.939841,-0.56425 -2.518998,-1.51236 1.728151,-1.03753 1.190233,-0.71506 2.518049,-1.51234 l 1.939729,1.16422 c 0.331744,0.1988 0.62482,-0.31349 0.293058,-0.51285 -1.718767,-1.03215 -0.611201,-0.36766 -4.542325,-2.72791 -0.241172,-0.14478 -0.511701,-0.217 -0.782121,-0.21698 z m 0,0.59153 c 0.165224,0 0.330028,0.0436 0.477397,0.132 l 2.04067,1.22554 c -1.179607,0.70815 -0.237977,0.1435 -2.518067,1.51236 l -2.518998,-1.51236 2.04067,-1.22554 c 0.147332,-0.0885 0.313122,-0.132 0.478328,-0.132 z m -3.092608,1.70198 2.518049,1.51233 c -0.344615,0.20687 -2.175132,1.3064 -2.518049,1.51236 -0.361686,-0.21718 -2.300903,-1.38136 -2.518999,-1.51236 z m -3.092609,1.85669 2.518049,1.51236 c -2.100151,1.26101 -1.738794,1.04443 -2.518049,1.51234 l -2.49919,-1.50102 c 0.04674,-0.0433 0.09731,-0.0814 0.151897,-0.11411 0.01095,-0.007 1.806746,-1.08505 2.347293,-1.40951 z m 6.185217,0 c 1.074321,0.64507 1.235656,0.74247 2.518067,1.51236 -0.34739,0.20855 -2.171298,1.30424 -2.518067,1.51234 L 73.04698,117.2343 c 0.344615,-0.20687 2.176081,-1.3064 2.518998,-1.51236 z m 6.184286,0 2.347293,1.40952 c 0.05477,0.0329 0.106255,0.0708 0.152809,0.1141 l -2.500139,1.50102 c -0.771258,-0.46314 -0.397578,-0.23916 -2.518049,-1.51234 z m -9.276894,1.85672 2.518049,1.51233 -2.518049,1.51234 c -0.243327,-0.14623 -2.263495,-1.35889 -2.518999,-1.51234 z m 6.185235,0 2.518049,1.51233 -2.518049,1.51234 c -0.323985,-0.19438 -2.169473,-1.3024 -2.518999,-1.51234 0.353689,-0.21239 2.193005,-1.31671 2.518999,-1.51233 z m -12.061018,0.18585 2.487871,1.49348 v 2.26048 l -2.50202,-1.50197 v -2.08972 c 0,-0.0544 0.0055,-0.10881 0.01461,-0.1623 z m 17.935851,0 c 0.0091,0.0533 0.01461,0.1079 0.01461,0.1623 v 2.08973 l -2.50107,1.50197 v -2.26048 z m -8.96746,1.67084 c 0.324003,0.19455 2.168377,1.30243 2.518067,1.51234 l -2.518067,1.51236 -2.518998,-1.51236 z m -5.889932,0.17728 c 1.933631,1.16095 1.668579,1.00144 2.50202,1.50197 v 2.2605 l -2.50202,-1.50197 z m 11.778932,0 v 2.2605 l -2.501088,1.50197 v -2.2605 z m -8.686305,1.85669 c 0.256106,0.15373 2.25988,1.35714 2.50107,1.50197 v 2.2605 l -2.50107,-1.50196 z m 5.593679,0 v 2.26051 l -2.50107,1.50196 v -2.2605 c 0.258881,-0.15536 2.1032,-1.26309 2.50107,-1.50197 z"
         sodipodi:nodetypes="sscsccccccccccccccccsscccccccssssccccscccccccccsccccccccccccccccccccccccccscccccccccccccccccccccccccccccccccc" />
    </g>
    <text
       xml:space="preserve"
       style="font-size:18.082px;line-height:100%;font-family:Anton;-inkscape-font-specification:'Anton, Normal';text-align:end;letter-spacing:-0.914863px;text-anchor:end;fill:#1a1a1a;fill-opacity:1;stroke:none;stroke-width:1.04424;paint-order:fill markers stroke"
       x="128.14023"
       y="128.05229"
       id="text1"><tspan
         sodipodi:role="line"
         id="tspan1"
         style="font-style:normal;font-variant:normal;font-weight:normal;font-stretch:normal;font-size:18.082px;font-family:'Roboto Condensed';-inkscape-font-specification:'Roboto Condensed, Normal';font-variant-ligatures:normal;font-variant-caps:normal;font-variant-numeric:normal;font-variant-east-asian:normal;fill:#1a1a1a;fill-opacity:1;stroke:none;stroke-width:1.04424"
         x="127.22536"
         y="128.05229">qim3d</tspan></text>
  </g>
</svg>
