<?xml version="1.0" encoding="UTF-8" standalone="no"?>
<!-- Created with Inkscape (http://www.inkscape.org/) -->

<svg
   width="34.483688mm"
   height="10.91249mm"
   viewBox="0 0 34.483687 10.91249"
   version="1.1"
   id="svg1"
   inkscape:version="1.3.2 (1:1.3.2+202311252150+091e20ef0f)"
   sodipodi:docname="qim3d-logo.svg"
   inkscape:export-filename="qim3d-logo.png"
   inkscape:export-xdpi="214.35162"
   inkscape:export-ydpi="214.35162"
   xmlns:inkscape="http://www.inkscape.org/namespaces/inkscape"
   xmlns:sodipodi="http://sodipodi.sourceforge.net/DTD/sodipodi-0.dtd"
   xmlns="http://www.w3.org/2000/svg"
   xmlns:svg="http://www.w3.org/2000/svg">
  <sodipodi:namedview
     id="namedview1"
     pagecolor="#ffffff"
     bordercolor="#000000"
     borderopacity="0.25"
     inkscape:showpageshadow="2"
     inkscape:pageopacity="0.0"
     inkscape:pagecheckerboard="0"
     inkscape:deskcolor="#ffffff"
     inkscape:document-units="mm"
     inkscape:zoom="1.5672613"
     inkscape:cx="93.156132"
     inkscape:cy="78.480851"
     inkscape:window-width="792"
     inkscape:window-height="631"
     inkscape:window-x="3228"
     inkscape:window-y="748"
     inkscape:window-maximized="0"
     inkscape:current-layer="g274"
     showborder="true" />
  <defs
     id="defs1" />
  <g
     inkscape:label="Layer 1"
     inkscape:groupmode="layer"
     id="layer1"
     transform="translate(-76.62622,-116.69011)">
    <g
       id="g274"
       transform="translate(411.98154,-151.10403)">
      <g
         id="g129"
         transform="translate(-30.263824,65.470393)">
        <path
           id="path111"
           d="m -299.2688,207.63632 -5.27832,2.18097 c -0.37814,0.14893 -0.41489,0.7496 -0.0409,0.91436 l 5.17239,2.13082 c 0.4877,0.18116 1.00239,0.18129 1.45479,0 l 5.17239,-2.13082 c 0.37397,-0.16476 0.33723,-0.76543 -0.0409,-0.91436 l -5.27831,-2.18097 c -0.44426,-0.18069 -0.70409,-0.18273 -1.1611,0 z"
           fill="#ffab61"
           paint-order="normal"
           style="fill:#990000;fill-opacity:1;stroke:#000000;stroke-width:0.476;stroke-dasharray:none;stroke-opacity:1" />
        <g
           id="g128"
           transform="translate(0,0.52916663)">
          <path
             id="path112"
             d="m -295.10452,208.46249 c -0.77318,0.32871 -2.00929,0.87897 -2.77928,1.20984 -0.5027,0.18965 -0.83385,0.28613 -1.44516,0.0622 -0.56836,-0.24279 -1.13861,-0.48709 -1.70755,-0.73059 -0.51356,-0.24139 -0.85224,0.5504 -0.32297,0.75507 l 1.68789,0.72178 c 0.69391,0.30329 1.34389,0.27111 2.1577,-0.0742 l 3.47659,-1.50312 z"
             fill="#ff8f64"
             font-variant-ligatures="normal"
             font-variant-position="normal"
             font-variant-caps="normal"
             font-variant-numeric="normal"
             font-variant-alternates="normal"
             font-feature-settings="normal"
             text-indent="0"
             text-align="start"
             text-decoration-line="none"
             text-decoration-style="solid"
             text-decoration-color="#000000"
             text-transform="none"
             text-orientation="mixed"
             white-space="normal"
             shape-padding="0"
             isolation="auto"
             mix-blend-mode="normal"
             solid-color="#000000"
             solid-opacity="1"
             vector-effect="none"
             paint-order="normal"
             style="fill:#000000;fill-opacity:0.425063;stroke-width:0.776388"
             sodipodi:nodetypes="ccccccccc" />
          <path
             id="path114"
             d="m -299.2688,204.6337 -5.27832,2.18097 c -0.37814,0.14893 -0.41489,0.7496 -0.0409,0.91436 l 5.17239,2.13082 c 0.4877,0.18116 1.00239,0.18129 1.45479,0 l 5.17239,-2.13082 c 0.37397,-0.16476 0.33723,-0.76543 -0.0409,-0.91436 l -5.27831,-2.18097 c -0.44426,-0.18069 -0.70409,-0.18272 -1.1611,0 z"
             fill="#ffc861"
             paint-order="normal"
             style="fill:#cd4d00;fill-opacity:1;stroke:#000000;stroke-width:0.476;stroke-dasharray:none;stroke-opacity:1" />
        </g>
        <g
           id="g127"
           transform="translate(0,1.0583333)">
          <path
             id="path115"
             d="m -295.30437,205.52095 c -0.7744,0.32922 -1.79262,0.8291 -2.56383,1.16048 -0.50349,0.18996 -0.83516,0.28658 -1.44743,0.0623 -0.56926,-0.24318 -1.1404,-0.48787 -1.71024,-0.73176 -0.51438,-0.24176 -0.85359,0.55127 -0.32348,0.75627 l 1.69054,0.72291 c 0.69501,0.30377 1.34602,0.27153 2.16111,-0.0743 l 3.48241,-1.48907 z"
             fill="#ffab61"
             font-variant-ligatures="normal"
             font-variant-position="normal"
             font-variant-caps="normal"
             font-variant-numeric="normal"
             font-variant-alternates="normal"
             font-feature-settings="normal"
             text-indent="0"
             text-align="start"
             text-decoration-line="none"
             text-decoration-style="solid"
             text-decoration-color="#000000"
             text-transform="none"
             text-orientation="mixed"
             white-space="normal"
             shape-padding="0"
             isolation="auto"
             mix-blend-mode="normal"
             solid-color="#000000"
             solid-opacity="1"
             vector-effect="none"
             paint-order="normal"
             style="fill:#000000;fill-opacity:0.425063;stroke-width:0.205743"
             sodipodi:nodetypes="ccccccccc" />
          <path
             id="path125"
             d="m -299.26881,201.63132 -5.27832,2.18098 c -0.37814,0.14892 -0.41489,0.74959 -0.0409,0.91436 l 5.17239,2.13082 c 0.4877,0.18115 1.00239,0.18128 1.45479,0 l 5.17239,-2.13082 c 0.37397,-0.16477 0.33723,-0.76544 -0.0409,-0.91436 l -5.27831,-2.18098 c -0.44426,-0.18069 -0.70409,-0.18272 -1.1611,0 z"
             fill="#55a1ff"
             paint-order="normal"
             style="fill:#ff9900;fill-opacity:1;stroke:#000000;stroke-width:0.476;stroke-dasharray:none;stroke-opacity:1" />
        </g>
      </g>
      <path
         style="font-weight:300;font-size:8.90381px;line-height:100%;font-family:'Roboto Condensed';-inkscape-font-specification:'Roboto Condensed, Light';text-align:end;letter-spacing:-0.450489px;text-anchor:end;fill:#262626;stroke-width:0.514196;paint-order:fill markers stroke"
         d="m -316.92077,277.49361 v -5.60835 l 0.0348,-0.9043 h 0.4478 v 6.51265 z m -2.72592,-3.93889 v -0.4391 q 0,-0.59127 0.10434,-1.01298 0.10434,-0.42607 0.29998,-0.69127 0.19999,-0.2652 0.48258,-0.39128 0.28694,-0.12608 0.65214,-0.12608 0.34345,0 0.60431,0.12608 0.2652,0.12608 0.45214,0.36085 0.18695,0.23477 0.29999,0.56084 0.11738,0.32606 0.16955,0.72604 v 1.40426 q -0.0435,0.36954 -0.15651,0.68692 -0.11304,0.31302 -0.29998,0.53909 -0.18695,0.22608 -0.4565,0.35216 -0.2652,0.12608 -0.61735,0.12608 -0.36085,0 -0.64779,-0.13478 -0.28259,-0.13477 -0.48258,-0.40867 -0.19564,-0.27389 -0.29998,-0.69126 -0.10434,-0.41737 -0.10434,-0.9869 z m 0.48693,-0.4391 v 0.4391 q 0,0.45215 0.0696,0.78256 0.0739,0.33042 0.20868,0.55214 0.13912,0.21738 0.3565,0.32607 0.21738,0.10434 0.50866,0.10434 0.36955,0 0.61736,-0.15216 0.25216,-0.15651 0.40432,-0.41737 0.15651,-0.26085 0.22608,-0.56083 v -1.6086 q -0.0391,-0.20434 -0.12608,-0.41737 -0.087,-0.21738 -0.23477,-0.39997 -0.14347,-0.18695 -0.36085,-0.29999 -0.21738,-0.11738 -0.51736,-0.11738 -0.29563,0 -0.51301,0.10869 -0.21303,0.10869 -0.3565,0.32607 -0.13913,0.21737 -0.21303,0.54779 -0.0696,0.33041 -0.0696,0.78691 z m 4.13184,-2.13466 v 4.70407 h -0.48258 v -4.70407 z m -0.55649,-1.35644 q 0,-0.15216 0.0826,-0.25215 0.087,-0.10435 0.23912,-0.10435 0.14782,0 0.23042,0.10435 0.087,0.1 0.087,0.25215 0,0.14782 -0.087,0.24782 -0.0826,0.1 -0.23042,0.1 -0.15217,0 -0.23912,-0.1 -0.0826,-0.1 -0.0826,-0.24782 z m 1.91893,2.3216 v 3.73891 h -0.48692 v -4.70407 h 0.46518 z m -0.0913,1.09559 -0.23042,-0.12608 q 0.0217,-0.41737 0.12608,-0.78256 0.10869,-0.3652 0.30868,-0.64344 0.19999,-0.28259 0.48693,-0.4391 0.28694,-0.15652 0.65213,-0.15652 0.28694,0 0.51736,0.0957 0.23477,0.0913 0.40432,0.29129 0.16956,0.19564 0.26086,0.51301 0.0913,0.31302 0.0913,0.76082 v 3.13025 h -0.48258 v -3.11286 q 0,-0.46519 -0.12173,-0.73039 -0.11739,-0.2652 -0.33042,-0.37389 -0.20868,-0.11303 -0.49127,-0.11303 -0.32607,0 -0.55214,0.16085 -0.22608,0.16086 -0.3652,0.41737 -0.13477,0.25651 -0.19999,0.55214 -0.0652,0.29129 -0.0739,0.55649 z m 2.61289,-0.40867 -0.32607,0.0174 q 0.0174,-0.34346 0.13043,-0.65648 0.11304,-0.31738 0.31302,-0.56519 0.19999,-0.24781 0.47824,-0.39128 0.28259,-0.14347 0.63909,-0.14347 0.31302,0 0.55214,0.1 0.24346,0.0956 0.40867,0.30433 0.16955,0.20868 0.2565,0.53475 0.087,0.32606 0.087,0.78256 v 3.06938 h -0.48693 v -3.07373 q 0,-0.49562 -0.11739,-0.76517 -0.11738,-0.2739 -0.33041,-0.38259 -0.20868,-0.11303 -0.49127,-0.10868 -0.2739,0 -0.48258,0.12173 -0.20434,0.11738 -0.34346,0.30867 -0.13478,0.1913 -0.20868,0.41737 -0.0696,0.22173 -0.0783,0.43041 z m 4.25792,-0.40867 h 0.45215 q 0.39997,0 0.66518,-0.16086 0.26954,-0.16521 0.40432,-0.44345 0.13477,-0.27825 0.13477,-0.61736 0,-0.37824 -0.11738,-0.66517 -0.11739,-0.29129 -0.3565,-0.45215 -0.23477,-0.16521 -0.60431,-0.16521 -0.32607,0 -0.58258,0.15651 -0.25215,0.15652 -0.39997,0.4478 -0.14782,0.29129 -0.14782,0.69127 h -0.48258 q 0,-0.51302 0.20868,-0.9043 0.20869,-0.39563 0.57388,-0.61735 0.3652,-0.22608 0.83039,-0.22608 0.46953,0 0.82169,0.20434 0.35215,0.20434 0.54344,0.59562 0.19564,0.39128 0.19564,0.95211 0,0.28259 -0.10434,0.56084 -0.1,0.27389 -0.30433,0.49997 -0.19999,0.22607 -0.50866,0.36519 -0.30433,0.13913 -0.70866,0.13913 h -0.51301 z m 0,0.46084 v -0.3565 h 0.51301 q 0.46519,0 0.79126,0.13043 0.33042,0.12608 0.53475,0.35215 0.20434,0.22172 0.29998,0.51736 0.0956,0.29563 0.0956,0.6304 0,0.43475 -0.12608,0.77386 -0.12173,0.33476 -0.34346,0.56953 -0.22172,0.23042 -0.52171,0.35216 -0.29998,0.11738 -0.65213,0.11738 -0.32607,0 -0.6304,-0.11304 -0.30433,-0.11303 -0.54779,-0.33911 -0.23912,-0.23042 -0.38259,-0.56518 -0.13912,-0.33911 -0.13912,-0.78691 h 0.48693 q 0,0.39998 0.15216,0.70431 0.15217,0.29998 0.42607,0.47388 0.27389,0.16956 0.63474,0.16956 0.3652,0 0.62605,-0.15217 0.26085,-0.15216 0.39997,-0.45215 0.13913,-0.30433 0.13913,-0.73473 0,-0.45215 -0.16521,-0.73474 -0.16521,-0.28694 -0.46084,-0.42172 -0.29129,-0.13477 -0.67822,-0.13477 z m 5.53176,2.08683 v -5.76487 h 0.48258 v 6.67786 h -0.45215 z m -2.73027,-1.21732 v -0.4391 q 0,-0.59127 0.10434,-1.01298 0.10869,-0.42607 0.30868,-0.69127 0.19999,-0.2652 0.48258,-0.39128 0.28694,-0.12608 0.63909,-0.12608 0.34346,0 0.59996,0.12608 0.26086,0.12608 0.44346,0.36085 0.18259,0.23477 0.29563,0.56084 0.11304,0.32606 0.16521,0.72604 v 1.40426 q -0.0435,0.36954 -0.15652,0.68692 -0.10868,0.31302 -0.29563,0.53909 -0.1826,0.22608 -0.4478,0.35216 -0.2652,0.12608 -0.61301,0.12608 -0.3478,0 -0.63039,-0.13478 -0.28259,-0.13477 -0.48258,-0.40867 -0.19999,-0.27389 -0.30868,-0.69126 -0.10434,-0.41737 -0.10434,-0.9869 z m 0.48693,-0.4391 v 0.4391 q 0,0.45215 0.0696,0.78256 0.0696,0.32607 0.20868,0.54345 0.13912,0.21738 0.35215,0.32607 0.21303,0.10434 0.50432,0.10434 0.36954,0 0.61736,-0.15217 0.24781,-0.15651 0.39562,-0.40867 0.15217,-0.2565 0.22173,-0.56083 v -1.6086 q -0.0391,-0.20869 -0.12608,-0.42172 -0.0826,-0.21737 -0.22607,-0.39997 -0.13913,-0.1826 -0.3565,-0.29129 -0.21303,-0.11303 -0.51736,-0.11303 -0.29564,0 -0.51302,0.10868 -0.21737,0.10435 -0.3565,0.32172 -0.13912,0.21738 -0.20868,0.5478 -0.0652,0.32606 -0.0652,0.78256 z"
         id="text273"
         aria-label="qim3d" />
    </g>
  </g>
</svg>
