<?xml version="1.0" encoding="UTF-8" standalone="no"?>
<!-- Created with Inkscape (http://www.inkscape.org/) -->

<svg
   width="19.146276mm"
   height="24.191832mm"
   viewBox="0 0 19.146276 24.191832"
   version="1.1"
   id="svg1"
   inkscape:version="1.3.2 (1:1.3.2+202311252150+091e20ef0f)"
   sodipodi:docname="qim3d-icon.svg"
   xmlns:inkscape="http://www.inkscape.org/namespaces/inkscape"
   xmlns:sodipodi="http://sodipodi.sourceforge.net/DTD/sodipodi-0.dtd"
   xmlns="http://www.w3.org/2000/svg"
   xmlns:svg="http://www.w3.org/2000/svg">
  <sodipodi:namedview
     id="namedview1"
     pagecolor="#ffffff"
     bordercolor="#000000"
     borderopacity="0.25"
     inkscape:showpageshadow="2"
     inkscape:pageopacity="0.0"
     inkscape:pagecheckerboard="0"
     inkscape:deskcolor="#d1d1d1"
     inkscape:document-units="mm"
     inkscape:zoom="1.1082211"
     inkscape:cx="88.430007"
     inkscape:cy="301.3839"
     inkscape:window-width="1602"
     inkscape:window-height="1323"
     inkscape:window-x="3494"
     inkscape:window-y="56"
     inkscape:window-maximized="0"
     inkscape:current-layer="layer1" />
  <defs
     id="defs1" />
  <g
     inkscape:label="Layer 1"
     inkscape:groupmode="layer"
     id="layer1"
     transform="translate(-81.756255,-68.791666)">
    <g
       id="g272"
       inkscape:export-filename="qim3d-icon.png"
       inkscape:export-xdpi="100"
       inkscape:export-ydpi="100"
       transform="matrix(1.8256787,0,0,1.8256787,332.94204,-551.43703)">
      <g
         id="g256">
        <path
           id="path142"
           style="fill:#990000;fill-opacity:1;stroke-width:0.0215822"
           d="m -137.34045,348.16376 c -0.0552,0.0985 -0.0858,0.21086 -0.0858,0.32763 l 0.16486,1.15083 0.64698,0.38838 4.11086,2.84603 0.15916,0.0956 v -1.80919 c -0.14888,-0.0894 -3.23936,-1.94478 -3.3879,-2.03398 z"
           sodipodi:nodetypes="csccccccc" />
        <path
           d="m -127.58807,347.91678 -1.3687,-0.82173 -1.69386,-1.01705 -1.34889,-0.80984 c -0.21237,-0.12747 -0.47767,-0.12747 -0.69004,0 l -1.34889,0.80984 c -0.006,0.003 -3.05691,1.83532 -3.06256,1.83878 -0.10159,0.061 -0.18336,0.14669 -0.23951,0.24676 l 1.60812,0.96547 c 0.14855,0.0892 3.23902,1.94467 3.38782,2.03403 0.14896,-0.0894 3.23935,-1.94484 3.38781,-2.03403 l 1.60821,-0.96547 c -0.0561,-0.10007 -0.13784,-0.18573 -0.23951,-0.24676 z m 0,0"
           fill="#ffd500"
           id="path143"
           style="fill:#990000;fill-opacity:1;stroke-width:0.0215822" />
        <path
           id="path144"
           style="fill:#990000;fill-opacity:1;stroke-width:0.0215822"
           d="m -127.34882,348.16376 -1.60817,0.96532 c -0.14863,0.0892 -3.2385,1.94462 -3.38739,2.03398 v 1.81281 l 3.55276,-2.1332 1.37019,-1.20043 0.1584,0.0852 v -1.2361 c -9e-5,-0.11677 -0.0305,-0.22916 -0.0858,-0.32763 z"
           sodipodi:nodetypes="ccccccccsc" />
        <path
           id="path145"
           style="fill:#000000;fill-opacity:0.105752;stroke-width:0.0215822"
           d="m -132.34429,345.17228 c -0.11942,0 -0.23891,0.0319 -0.34504,0.0957 l -1.34875,0.80982 c -0.006,0.003 -3.05699,1.83554 -3.06264,1.839 -0.10167,0.061 -0.18331,0.14647 -0.23946,0.24654 l 1.60802,0.96549 c 0.14855,0.0892 3.23907,1.94466 3.38787,2.03402 0.0451,-0.0271 0.36024,-0.2161 0.78151,-0.46902 -0.96234,-0.57775 -2.58386,-1.55139 -2.69042,-1.61538 l -2.9e-4,2.8e-4 -1.36743,-0.82085 c -0.1461,-0.0877 -0.14985,-0.30133 -0.004,-0.38977 8.5e-4,-4.3e-4 0.002,-9.8e-4 0.003,-0.002 0.006,-0.003 3.05699,-1.83525 3.06264,-1.83871 l 0.91256,-0.54771 -0.35268,-0.21173 c -0.10615,-0.0637 -0.22562,-0.0957 -0.34504,-0.0957 z m -4.99618,2.99159 c -0.0552,0.0985 -0.0858,0.21072 -0.0858,0.32749 l 0.16474,1.1509 0.64706,0.38835 v -1.43112 z m 5.80543,2.51351 c -0.43527,0.26127 -0.76313,0.45807 -0.80925,0.48572 v 1.81268 l 0.80925,-0.48572 z" />
        <path
           id="path256"
           style="stroke-width:0.0215822"
           d="m -132.34128,345.01667 c -0.14811,1e-5 -0.29633,0.0396 -0.42839,0.11885 -0.1338,0.0804 -4.81521,2.89117 -4.81521,2.89117 v 1.26231 c 0,0.39504 -1e-5,0.54421 0.32349,0.73098 l 1.37046,0.82269 0.32349,0.1943 1.37046,0.82269 0.3235,0.1943 1.36994,0.82269 0.16226,0.0971 0.16175,-0.0971 1.36994,-0.82269 0.32401,-0.1943 1.36995,-0.82269 0.32401,-0.1943 1.36994,-0.82269 c 0.324,-0.18706 0.32401,-0.36266 0.32401,-0.75822 v -1.23513 c -0.31564,-0.18951 -2.10118,-1.26133 -2.3213,-1.39352 -0.0766,-0.046 -0.17618,-0.0213 -0.22221,0.0553 -0.046,0.0766 -0.0208,0.17617 0.0558,0.22221 l 0.31729,0.19068 -1.37924,0.82838 c -0.84912,-0.50979 -0.51479,-0.30906 -1.37976,-0.82838 0.94658,-0.5683 0.65194,-0.39167 1.37924,-0.82837 l 0.3514,0.21084 c 0.0766,0.0459 0.17609,0.0213 0.22221,-0.0553 0.046,-0.0766 0.0208,-0.17618 -0.0558,-0.22221 -0.94144,-0.56535 0.3704,0.22207 -1.78284,-1.07074 -0.1321,-0.0793 -0.28028,-0.11886 -0.4284,-0.11885 z m 0,0.32401 c 0.0905,0 0.18077,0.0239 0.26149,0.0723 l 1.11776,0.67128 c -0.64612,0.38788 -0.13035,0.0786 -1.37925,0.82838 l -1.37976,-0.82838 1.11776,-0.67128 c 0.0807,-0.0485 0.17151,-0.0723 0.262,-0.0723 z m -1.69395,0.93224 1.37924,0.82837 c -0.18876,0.11331 -1.19141,0.71557 -1.37924,0.82838 -0.19811,-0.11896 -1.2603,-0.75663 -1.37976,-0.82838 z m -1.69395,1.01699 1.37924,0.82838 c -1.15034,0.69071 -0.95241,0.57208 -1.37924,0.82837 l -1.36891,-0.82217 c 0.0256,-0.0237 0.0533,-0.0446 0.0832,-0.0625 0.006,-0.004 0.98963,-0.59433 1.28571,-0.77205 z m 3.3879,0 c 0.58845,0.35333 0.67682,0.40668 1.37925,0.82838 -0.19028,0.11423 -1.18931,0.71439 -1.37925,0.82837 l -1.37976,-0.82837 c 0.18876,-0.11331 1.19193,-0.71557 1.37976,-0.82838 z m 3.38739,0 1.28571,0.77205 c 0.03,0.018 0.0582,0.0388 0.0837,0.0625 l -1.36943,0.82217 c -0.42245,-0.25368 -0.21777,-0.131 -1.37924,-0.82837 z m -5.08134,1.017 1.37924,0.82837 -1.37924,0.82837 c -0.13328,-0.0801 -1.23981,-0.74432 -1.37976,-0.82837 z m 3.38791,0 1.37924,0.82837 -1.37924,0.82837 c -0.17746,-0.10647 -1.18831,-0.71338 -1.37976,-0.82837 0.19373,-0.11634 1.2012,-0.72122 1.37976,-0.82837 z m -6.60632,0.1018 1.36271,0.81804 v 1.23816 l -1.37046,-0.82269 v -1.14463 c 0,-0.0298 0.003,-0.0596 0.008,-0.0889 z m 9.82421,0 c 0.005,0.0292 0.008,0.0591 0.008,0.0889 v 1.14463 l -1.36994,0.82269 v -1.23816 z m -4.91185,0.91519 c 0.17747,0.10656 1.18771,0.71339 1.37925,0.82837 l -1.37925,0.82838 -1.37976,-0.82838 z m -3.22616,0.0971 c 1.05913,0.6359 0.91395,0.54853 1.37046,0.82269 v 1.23817 l -1.37046,-0.82269 z m 6.45181,0 v 1.23817 l -1.36995,0.82269 v -1.23817 z m -4.75785,1.01699 c 0.14028,0.0842 1.23783,0.74336 1.36994,0.82269 v 1.23817 l -1.36994,-0.82269 z m 3.06389,0 v 1.23817 l -1.36994,0.82269 v -1.23817 c 0.1418,-0.0851 1.15201,-0.69185 1.36994,-0.82269 z"
           sodipodi:nodetypes="sscccccccccccccccccssccccccscssssccccscccccccccsccccccccccccccccccccccccccscccccccccccccccccccccccccccccccccc" />
      </g>
      <g
         id="g263"
         transform="translate(0,-2.6458334)">
        <path
           id="path257"
           style="fill:#cd4d00;fill-opacity:1;stroke-width:0.0215822"
           d="m -137.34045,348.16376 c -0.0552,0.0985 -0.0858,0.21086 -0.0858,0.32763 l 0.16486,1.15083 0.64698,0.38838 4.11086,2.84603 0.15916,0.0956 v -1.80919 c -0.14888,-0.0894 -3.23936,-1.94478 -3.3879,-2.03398 z"
           sodipodi:nodetypes="csccccccc" />
        <path
           d="m -127.58807,347.91678 -1.3687,-0.82173 -1.69386,-1.01705 -1.34889,-0.80984 c -0.21237,-0.12747 -0.47767,-0.12747 -0.69004,0 l -1.34889,0.80984 c -0.006,0.003 -3.05691,1.83532 -3.06256,1.83878 -0.10159,0.061 -0.18336,0.14669 -0.23951,0.24676 l 1.60812,0.96547 c 0.14855,0.0892 3.23902,1.94467 3.38782,2.03403 0.14896,-0.0894 3.23935,-1.94484 3.38781,-2.03403 l 1.60821,-0.96547 c -0.0561,-0.10007 -0.13784,-0.18573 -0.23951,-0.24676 z m 0,0"
           fill="#ffd500"
           id="path258"
           style="fill:#cd4d00;fill-opacity:1;stroke-width:0.0215822" />
        <path
           id="path259"
           style="fill:#cd4d00;fill-opacity:1;stroke-width:0.0215822"
           d="m -127.34882,348.16376 -1.60817,0.96532 c -0.14863,0.0892 -3.2385,1.94462 -3.38739,2.03398 v 1.81281 l 3.55276,-2.1332 1.52859,-0.91778 v -0.1974 -1.2361 c -9e-5,-0.11677 -0.0305,-0.22916 -0.0858,-0.32763 z" />
        <path
           id="path260"
           style="fill:#000000;fill-opacity:0.0909692;stroke-width:0.0215822"
           d="m -132.34429,345.17242 c -0.11942,0 -0.23891,0.0319 -0.34504,0.0957 l -1.34875,0.80981 c -0.006,0.003 -3.05699,1.83526 -3.06264,1.83872 -0.10167,0.061 -0.18331,0.14675 -0.23946,0.24682 l 0.72575,0.4359 0.88227,0.52959 c 0.14855,0.0892 3.23907,1.94467 3.38787,2.03403 0.0451,-0.0271 0.36024,-0.21639 0.78151,-0.46931 -0.96234,-0.57775 -2.58386,-1.55111 -2.69042,-1.6151 h -2.9e-4 l -1.36743,-0.82085 c -0.1461,-0.0877 -0.14985,-0.30104 -0.004,-0.38948 8.5e-4,-4.3e-4 0.002,-9.9e-4 0.003,-0.002 0.006,-0.003 3.05699,-1.83525 3.06264,-1.83871 l 0.91256,-0.54799 -0.35268,-0.21144 c -0.10615,-0.0637 -0.22562,-0.0957 -0.34504,-0.0957 z m 0,5.99054 v 1.81295 l 0.80925,-0.48572 v -1.81295 c -0.43527,0.26127 -0.76313,0.45807 -0.80925,0.48572 z m -4.27014,-2.56362 -0.72604,-0.43562 c -0.0552,0.0985 -0.0858,0.21101 -0.0858,0.32778 l 0.16474,1.15061 0.64706,0.38835 z" />
        <path
           id="path263"
           style="stroke-width:0.0215822"
           d="m -132.34128,345.01667 c -0.14811,1e-5 -0.29633,0.0396 -0.42839,0.11885 -0.1338,0.0804 -4.81521,2.89117 -4.81521,2.89117 v 1.7989 l 0.32349,0.19439 1.37046,0.82269 0.32349,0.1943 1.37046,0.82269 0.3235,0.1943 1.36994,0.82269 0.16226,0.0971 0.16175,-0.0971 1.36994,-0.82269 0.32401,-0.1943 1.36995,-0.82269 0.32401,-0.1943 1.36994,-0.82269 0.32401,-0.1943 c 0,-0.66404 0,-1.31454 0,-1.79905 -0.31564,-0.18951 -2.10118,-1.26133 -2.3213,-1.39352 -0.0766,-0.046 -0.17618,-0.0213 -0.22221,0.0553 -0.046,0.0766 -0.0208,0.17617 0.0558,0.22221 l 0.31729,0.19068 -1.37924,0.82838 c -0.84912,-0.50979 -0.51479,-0.30906 -1.37976,-0.82838 0.94658,-0.5683 0.65194,-0.39167 1.37924,-0.82837 l 0.3514,0.21084 c 0.0766,0.0459 0.17609,0.0213 0.22221,-0.0553 0.046,-0.0766 0.0208,-0.17618 -0.0558,-0.22221 -0.94144,-0.56535 0.3704,0.22207 -1.78284,-1.07074 -0.1321,-0.0793 -0.28028,-0.11886 -0.4284,-0.11885 z m 0,0.32401 c 0.0905,0 0.18077,0.0239 0.26149,0.0723 l 1.11776,0.67128 c -0.64612,0.38788 -0.13035,0.0786 -1.37925,0.82838 l -1.37976,-0.82838 1.11776,-0.67128 c 0.0807,-0.0485 0.17151,-0.0723 0.262,-0.0723 z m -1.69395,0.93224 1.37924,0.82837 c -0.18876,0.11331 -1.19141,0.71557 -1.37924,0.82838 -0.19811,-0.11896 -1.2603,-0.75663 -1.37976,-0.82838 z m -1.69395,1.01699 1.37924,0.82838 c -1.15034,0.69071 -0.95241,0.57208 -1.37924,0.82837 l -1.36891,-0.82217 c 0.0256,-0.0237 0.0533,-0.0446 0.0832,-0.0625 0.006,-0.004 0.98963,-0.59433 1.28571,-0.77205 z m 3.3879,0 c 0.58845,0.35333 0.67682,0.40668 1.37925,0.82838 -0.19028,0.11423 -1.18931,0.71439 -1.37925,0.82837 l -1.37976,-0.82837 c 0.18876,-0.11331 1.19193,-0.71557 1.37976,-0.82838 z m 3.38739,0 1.28571,0.77205 c 0.03,0.018 0.0582,0.0388 0.0837,0.0625 l -1.36943,0.82217 c -0.42245,-0.25368 -0.21777,-0.131 -1.37924,-0.82837 z m -5.08134,1.017 1.37924,0.82837 -1.37924,0.82837 c -0.13328,-0.0801 -1.23981,-0.74432 -1.37976,-0.82837 z m 3.38791,0 1.37924,0.82837 -1.37924,0.82837 c -0.17746,-0.10647 -1.18831,-0.71338 -1.37976,-0.82837 0.19373,-0.11634 1.2012,-0.72122 1.37976,-0.82837 z m -6.60632,0.1018 1.36271,0.81804 v 1.23816 l -1.37046,-0.82269 v -1.14463 c 0,-0.0298 0.003,-0.0596 0.008,-0.0889 z m 9.82421,0 c 0.005,0.0292 0.008,0.0591 0.008,0.0889 v 1.14463 l -1.36994,0.82269 v -1.23816 z m -4.91185,0.91519 c 0.17747,0.10656 1.18771,0.71339 1.37925,0.82837 l -1.37925,0.82838 -1.37976,-0.82838 z m -3.22616,0.0971 c 1.05913,0.6359 0.91395,0.54853 1.37046,0.82269 v 1.23817 l -1.37046,-0.82269 z m 6.45181,0 v 1.23817 l -1.36995,0.82269 v -1.23817 z m -4.75785,1.01699 c 0.14028,0.0842 1.23783,0.74336 1.36994,0.82269 v 1.23817 l -1.36994,-0.82269 z m 3.06389,0 v 1.23817 l -1.36994,0.82269 v -1.23817 c 0.1418,-0.0851 1.15201,-0.69185 1.36994,-0.82269 z"
           sodipodi:nodetypes="sscccccccccccccccccssccccccscssssccccscccccccccsccccccccccccccccccccccccccscccccccccccccccccccccccccccccccccc" />
      </g>
      <path
         id="path264"
         style="fill:#ff9900;fill-opacity:1;stroke-width:0.0215822"
         d="m -137.34045,342.87209 c -0.0552,0.0985 -0.0858,0.21086 -0.0858,0.32763 l 0.16486,1.15083 0.64698,0.38838 4.11086,2.84603 0.15916,0.0956 v -1.80919 c -0.14888,-0.0894 -3.23936,-1.94478 -3.3879,-2.03398 z"
         sodipodi:nodetypes="csccccccc" />
      <path
         d="m -127.58807,342.62511 -1.3687,-0.82173 -1.69386,-1.01705 -1.34889,-0.80984 c -0.21237,-0.12747 -0.47767,-0.12747 -0.69004,0 l -1.34889,0.80984 c -0.006,0.003 -3.05691,1.83532 -3.06256,1.83878 -0.10159,0.061 -0.18336,0.14669 -0.23951,0.24676 l 1.60812,0.96547 c 0.14855,0.0892 3.23902,1.94467 3.38782,2.03403 0.14896,-0.0894 3.23935,-1.94484 3.38781,-2.03403 l 1.60821,-0.96547 c -0.0561,-0.10007 -0.13784,-0.18573 -0.23951,-0.24676 z m 0,0"
         fill="#ffd500"
         id="path265"
         style="fill:#ff9900;fill-opacity:1;stroke-width:0.0215822" />
      <path
         id="path266"
         style="fill:#ff9900;fill-opacity:1;stroke-width:0.0215822"
         d="m -127.34882,342.87209 -1.60817,0.96532 c -0.14863,0.0892 -3.2385,1.94462 -3.38739,2.03398 v 1.81281 l 3.55276,-2.1332 1.52859,-0.91778 v -0.1974 -1.2361 c -9e-5,-0.11677 -0.0305,-0.22916 -0.0858,-0.32763 z" />
      <g
         id="g273"
         style="fill:#ffffff;fill-opacity:0.194108"
         transform="translate(0,-5.2916667)">
        <path
           id="path267"
           style="fill:#ffffff;fill-opacity:0.194108;stroke-width:0.0215822"
           d="m -137.34045,348.16376 c -0.0552,0.0985 -0.0858,0.21086 -0.0858,0.32763 l 0.16486,1.15083 0.64698,0.38838 v -1.43123 z"
           sodipodi:nodetypes="cscccc" />
        <path
           d="m -134.25342,349.07868 -1.36736,-0.82097 c -0.1461,-0.0877 -0.14989,-0.30105 -0.004,-0.38949 8.5e-4,-4.3e-4 0.002,-0.001 0.003,-0.002 0.006,-0.003 3.05692,-1.83524 3.06257,-1.8387 l 0.91252,-0.5479 -0.35256,-0.21161 c -0.21229,-0.12747 -0.47768,-0.12747 -0.68996,0 l -1.34889,0.80984 c -0.006,0.003 -3.05691,1.83533 -3.06256,1.83879 -0.10167,0.061 -0.18336,0.14669 -0.23951,0.24676 l 1.60812,0.96546 c 0.14855,0.0892 3.23902,1.94468 3.38782,2.03404 0.0451,-0.0271 0.36015,-0.21624 0.78142,-0.46916 -0.96234,-0.57775 -2.5837,-1.55122 -2.69026,-1.61521 z m 0,0"
           fill="#fbc700"
           id="path268"
           style="fill:#ffffff;fill-opacity:0.194108;stroke-width:0.0215822" />
        <path
           id="path269"
           style="fill:#ffffff;fill-opacity:0.194108;stroke-width:0.0215822"
           d="m -131.53512,350.6773 c -0.43527,0.26127 -0.76314,0.45811 -0.80926,0.48576 v 1.81281 l 0.80926,-0.48576 z" />
      </g>
      <path
         id="path270"
         style="stroke-width:0.0215822"
         d="m -132.34128,339.725 c -0.14811,10e-6 -0.29633,0.0396 -0.42839,0.11885 -0.1338,0.0804 -4.41162,2.64893 -4.41162,2.64893 -0.25081,0.15057 -0.40359,0.42187 -0.40359,0.71314 v 1.328 l 0.32349,0.19439 1.37046,0.82269 0.32349,0.1943 1.37046,0.82269 0.3235,0.1943 1.36994,0.82269 0.16226,0.0971 0.16175,-0.0971 1.36994,-0.82269 0.32401,-0.1943 1.36995,-0.82269 0.32401,-0.1943 1.36994,-0.82269 0.32401,-0.1943 v -1.32809 c -8e-5,-0.29161 -0.15381,-0.56282 -0.40411,-0.71314 -0.31564,-0.18951 -1.69707,-1.01915 -1.91719,-1.15134 -0.0766,-0.046 -0.17618,-0.0213 -0.22221,0.0553 -0.046,0.0766 -0.0208,0.17617 0.0558,0.22221 l 0.31729,0.19068 -1.37924,0.82838 c -0.84912,-0.50979 -0.51479,-0.30906 -1.37976,-0.82838 0.94658,-0.5683 0.65194,-0.39167 1.37924,-0.82837 l 0.3514,0.21084 c 0.0766,0.0459 0.17609,0.0213 0.22221,-0.0553 0.046,-0.0766 0.0208,-0.17618 -0.0558,-0.22221 -0.94144,-0.56535 0.3704,0.22207 -1.78284,-1.07074 -0.1321,-0.0793 -0.28028,-0.11886 -0.4284,-0.11885 z m 0,0.32401 c 0.0905,0 0.18077,0.0239 0.26149,0.0723 l 1.11776,0.67128 c -0.64612,0.38788 -0.13035,0.0786 -1.37925,0.82838 l -1.37976,-0.82838 1.11776,-0.67128 c 0.0807,-0.0485 0.17151,-0.0723 0.262,-0.0723 z m -1.69395,0.93224 1.37924,0.82837 c -0.18876,0.11331 -1.19141,0.71557 -1.37924,0.82838 -0.19811,-0.11896 -1.2603,-0.75663 -1.37976,-0.82838 z m -1.69395,1.01699 1.37924,0.82838 c -1.15034,0.69071 -0.95241,0.57208 -1.37924,0.82837 l -1.36891,-0.82217 c 0.0256,-0.0237 0.0533,-0.0446 0.0832,-0.0625 0.006,-0.004 0.98963,-0.59433 1.28571,-0.77205 z m 3.3879,0 c 0.58845,0.35333 0.67682,0.40668 1.37925,0.82838 -0.19028,0.11423 -1.18931,0.71439 -1.37925,0.82837 l -1.37976,-0.82837 c 0.18876,-0.11331 1.19193,-0.71557 1.37976,-0.82838 z m 3.38739,0 1.28571,0.77205 c 0.03,0.018 0.0582,0.0388 0.0837,0.0625 l -1.36943,0.82217 c -0.42245,-0.25368 -0.21777,-0.131 -1.37924,-0.82837 z m -5.08134,1.017 1.37924,0.82837 -1.37924,0.82837 c -0.13328,-0.0801 -1.23981,-0.74432 -1.37976,-0.82837 z m 3.38791,0 1.37924,0.82837 -1.37924,0.82837 c -0.17746,-0.10647 -1.18831,-0.71338 -1.37976,-0.82837 0.19373,-0.11634 1.2012,-0.72122 1.37976,-0.82837 z m -6.60632,0.1018 1.36271,0.81804 v 1.23816 l -1.37046,-0.82269 v -1.14463 c 0,-0.0298 0.003,-0.0596 0.008,-0.0889 z m 9.82421,0 c 0.005,0.0292 0.008,0.0591 0.008,0.0889 v 1.14463 l -1.36994,0.82269 v -1.23816 z m -4.91185,0.91519 c 0.17747,0.10656 1.18771,0.71339 1.37925,0.82837 l -1.37925,0.82838 -1.37976,-0.82838 z m -3.22616,0.0971 c 1.05913,0.6359 0.91395,0.54853 1.37046,0.82269 v 1.23817 l -1.37046,-0.82269 z m 6.45181,0 v 1.23817 l -1.36995,0.82269 v -1.23817 z m -4.75785,1.01699 c 0.14028,0.0842 1.23783,0.74336 1.36994,0.82269 v 1.23817 l -1.36994,-0.82269 z m 3.06389,0 v 1.23817 l -1.36994,0.82269 v -1.23817 c 0.1418,-0.0851 1.15201,-0.69185 1.36994,-0.82269 z"
         sodipodi:nodetypes="sscsccccccccccccccccsssccccccscssssccccscccccccccsccccccccccccccccccccccccccscccccccccccccccccccccccccccccccccc" />
      <path
         id="path271"
         style="stroke-width:0.0215822"
         d="m -132.34128,339.725 c -0.14811,10e-6 -0.29633,0.0396 -0.42839,0.11885 -0.1338,0.0804 -4.41162,2.64893 -4.41162,2.64893 -0.25081,0.15057 -0.40359,0.42187 -0.40359,0.71314 v 1.328 l 0.32349,0.19439 1.37046,0.82269 0.32349,0.1943 1.37046,0.82269 0.3235,0.1943 1.36994,0.82269 0.16226,0.0971 0.16175,-0.0971 1.36994,-0.82269 0.32401,-0.1943 1.36995,-0.82269 0.32401,-0.1943 1.36994,-0.82269 0.32401,-0.1943 v -1.32809 c -8e-5,-0.29161 -0.15381,-0.56282 -0.40411,-0.71314 -0.31564,-0.18951 -1.69707,-1.01915 -1.91719,-1.15134 -0.18154,-0.10902 -0.34821,0.16824 -0.16641,0.27751 l 0.31729,0.19068 -1.37924,0.82838 c -0.84912,-0.50979 -0.51479,-0.30906 -1.37976,-0.82838 0.94658,-0.5683 0.65194,-0.39167 1.37924,-0.82837 l 1.06247,0.63769 c 0.18171,0.10889 0.34224,-0.17171 0.16052,-0.28091 -0.94144,-0.56535 -0.33478,-0.20138 -2.48802,-1.49419 -0.1321,-0.0793 -0.28028,-0.11886 -0.4284,-0.11885 z m 0,0.32401 c 0.0905,0 0.18077,0.0239 0.26149,0.0723 l 1.11776,0.67128 c -0.64612,0.38788 -0.13035,0.0786 -1.37925,0.82838 l -1.37976,-0.82838 1.11776,-0.67128 c 0.0807,-0.0485 0.17151,-0.0723 0.262,-0.0723 z m -1.69395,0.93224 1.37924,0.82837 c -0.18876,0.11331 -1.19141,0.71557 -1.37924,0.82838 -0.19811,-0.11896 -1.2603,-0.75663 -1.37976,-0.82838 z m -1.69395,1.01699 1.37924,0.82838 c -1.15034,0.69071 -0.95241,0.57208 -1.37924,0.82837 l -1.36891,-0.82217 c 0.0256,-0.0237 0.0533,-0.0446 0.0832,-0.0625 0.006,-0.004 0.98963,-0.59433 1.28571,-0.77205 z m 3.3879,0 c 0.58845,0.35333 0.67682,0.40668 1.37925,0.82838 -0.19028,0.11423 -1.18931,0.71439 -1.37925,0.82837 l -1.37976,-0.82837 c 0.18876,-0.11331 1.19193,-0.71557 1.37976,-0.82838 z m 3.38739,0 1.28571,0.77205 c 0.03,0.018 0.0582,0.0388 0.0837,0.0625 l -1.36943,0.82217 c -0.42245,-0.25368 -0.21777,-0.131 -1.37924,-0.82837 z m -5.08134,1.017 1.37924,0.82837 -1.37924,0.82837 c -0.13328,-0.0801 -1.23981,-0.74432 -1.37976,-0.82837 z m 3.38791,0 1.37924,0.82837 -1.37924,0.82837 c -0.17746,-0.10647 -1.18831,-0.71338 -1.37976,-0.82837 0.19373,-0.11634 1.2012,-0.72122 1.37976,-0.82837 z m -6.60632,0.1018 1.36271,0.81804 v 1.23816 l -1.37046,-0.82269 v -1.14463 c 0,-0.0298 0.003,-0.0596 0.008,-0.0889 z m 9.82421,0 c 0.005,0.0292 0.008,0.0591 0.008,0.0889 v 1.14463 l -1.36994,0.82269 v -1.23816 z m -4.91185,0.91519 c 0.17747,0.10656 1.18771,0.71339 1.37925,0.82837 l -1.37925,0.82838 -1.37976,-0.82838 z m -3.22616,0.0971 c 1.05913,0.6359 0.91395,0.54853 1.37046,0.82269 v 1.23817 l -1.37046,-0.82269 z m 6.45181,0 v 1.23817 l -1.36995,0.82269 v -1.23817 z m -4.75785,1.01699 c 0.14028,0.0842 1.23783,0.74336 1.36994,0.82269 v 1.23817 l -1.36994,-0.82269 z m 3.06389,0 v 1.23817 l -1.36994,0.82269 v -1.23817 c 0.1418,-0.0851 1.15201,-0.69185 1.36994,-0.82269 z"
         sodipodi:nodetypes="sscsccccccccccccccccsscccccccssssccccscccccccccsccccccccccccccccccccccccccscccccccccccccccccccccccccccccccccc" />
    </g>
  </g>
</svg>
